{"title":"Traidor[HDrip][Xvid-AC3(2008)","uid":5082594,"size":1448764100,"categoryP":"video","categoryS":"movies","magnet":"?xt=urn:btih:b995cfffe0ee3ea31ccba248c90b4599d868a4b0&amp;dn=Traidor%5BHDrip%5D%5BXvid-AC3%282008%29&amp;tr=udp%3A%2F%2Ftracker.openbittorrent.com%3A80&amp;tr=udp%3A%2F%2Fopen.demonii.com%3A1337&amp;tr=udp%3A%2F%2Ftracker.coppersurfer.tk%3A6969&amp;tr=udp%3A%2F%2Fexodus.desync.com%3A6969","seeders":0,"leechers":0,"uploader":"nahla","files":1,"time":1252459007,"description":"Titulo:Traidor\nAÃƒÂ±o: 2008\nGÃƒÂ©nero: Thriller\nDuraciÃƒÂ³n: 114 min\nPaÃƒÂ­s: Estados Unidos\nDirector: Andrew Davis\nReparto: Don Cheadle, Guy Pearce, Jeff Daniels,\nNeal McDonough, Archie Panjabi, Alyy Kahn, Said Taghmaoui\n\nSinopsis:\nEl agente del FBI Roy Clayton dirige una investigaciÃƒÂ³n sobre una organizaciÃƒÂ³n terrorista cuyo cabecilla parece ser un agente de la CIA.\nClayton buscarÃƒÂ¡ pistas y pruebas para descubrir si el agente es un traidor.\n\n\nCalidad: HDRip\nTamaÃƒÂ±o: 1,35 GB\nVideo: XviD 1596 kbps\nAudio: MP3 ~160kb/s (2.0)\nSubtitulos: Traducidos al castellano\n\nGeneral\nFormat : AVI\nFormat/Info : Audio Video Interleave\nFile size : 1.35 GiB\nDuration : 1h 49mn\nOverall bit rate : 1 762 Kbps\n\nVideo\nFormat : MPEG-4 Visual\nFormat profile : Streaming Video@L1\nFormat settings, BVOP : Yes\nFormat settings, QPel : No\nFormat settings, GMC : No warppoints\nFormat settings, Matrix : Custom\nCodec ID : XVID\nCodec ID/Hint : XviD\nDuration : 1h 49mn\nBit rate : 1 596 Kbps\nWidth : 720 pixels\nHeight : 300 pixels\nDisplay aspect ratio : 2.400\nFrame rate : 25.000 fps\nResolution : 24 bits\nColorimetry : 4:2:0\nScan type : Progressive\nBits/(Pixel*Frame) : 0.296\nStream size : 1.22 GiB (91%)\n\nAudio\nFormat : MPEG Audio\nFormat version : Version 1\nFormat profile : Layer 3\nCodec ID : 55\nCodec ID/Hint : MP3\nDuration : 1h 49mn\nBit rate mode : Variable\nBit rate : 152 Kbps\nChannel(s) : 2 channels\nSampling rate : 48.0 KHz\nResolution : 16 bits\nStream size : 120 MiB (9%)\nAlignment : Aligned on interleaves\nInterleave, duration : 24 ms (0.60 video frame)\nInterleave, preload duration : 591 ms","torrent":{"xt":"urn:btih:b995cfffe0ee3ea31ccba248c90b4599d868a4b0","amp;dn":"Traidor%5BHDrip%5D%5BXvid-AC3%282008%29","amp;tr":["udp%3A%2F%2Ftracker.openbittorrent.com%3A80","udp%3A%2F%2Fopen.demonii.com%3A1337","udp%3A%2F%2Ftracker.coppersurfer.tk%3A6969","udp%3A%2F%2Fexodus.desync.com%3A6969"],"infoHash":"b995cfffe0ee3ea31ccba248c90b4599d868a4b0","infoHashBuffer":{"type":"Buffer","data":[185,149,207,255,224,238,62,163,28,203,162,72,201,11,69,153,216,104,164,176]},"announce":[],"urlList":[]}}